<svg t="1768643133513" class="icon" viewBox="0 0 1024 1024" version="1.1" xmlns="http://www.w3.org/2000/svg" p-id="6762" width="200" height="200"><path d="M270.933333 298.666667c9.386667 0 17.066667 7.68 17.066667 17.066666v505.6h448V315.733333c0-9.386667 7.68-17.066667 17.066667-17.066666h29.866666c9.386667 0 17.066667 7.68 17.066667 17.066666v552.533334a17.066667 17.066667 0 0 1-17.066667 17.066666H241.066667a17.066667 17.066667 0 0 1-17.066667-17.066666V315.733333c0-9.386667 7.68-17.066667 17.066667-17.066666h29.866666z m170.666667 85.333333c9.386667 0 17.066667 7.68 17.066667 17.066667v307.2a17.066667 17.066667 0 0 1-17.066667 17.066666h-29.866667a17.066667 17.066667 0 0 1-17.066666-17.066666V401.066667c0-9.386667 7.68-17.066667 17.066666-17.066667h29.866667z m170.666667 0c9.386667 0 17.066667 7.68 17.066666 17.066667v307.2a17.066667 17.066667 0 0 1-17.066666 17.066666h-29.866667a17.066667 17.066667 0 0 1-17.066667-17.066666V401.066667c0-9.386667 7.68-17.066667 17.066667-17.066667h29.866667z m-32-266.666667c9.386667 0 17.066667 7.68 17.066666 17.066667v46.933333h238.933334c9.386667 0 17.066667 7.68 17.066666 17.066667v29.866667a17.066667 17.066667 0 0 1-17.066666 17.066666H187.733333a17.066667 17.066667 0 0 1-17.066666-17.066666v-29.866667c0-9.386667 7.68-17.066667 17.066666-17.066667H426.666667v-46.933333c0-9.386667 7.68-17.066667 17.066666-17.066667h136.533334z" fill="#000000" fill-opacity=".87" p-id="6763"></path></svg>