<svg t="1768792671209" class="icon" viewBox="0 0 1024 1024" version="1.1" xmlns="http://www.w3.org/2000/svg" p-id="4721" width="200" height="200"><path d="M311.386353 176.880941a61.500235 61.500235 0 0 1 83.034353-3.614117l3.915294 3.614117 74.541176 74.511059a26.352941 26.352941 0 0 1-34.575058 39.634824l-2.710589-2.349177L361.110588 214.136471a8.794353 8.794353 0 0 0-10.842353-1.264942l-1.596235 1.264942-99.388235 99.388235a8.794353 8.794353 0 0 0-1.234824 10.842353l1.264941 1.566117 74.511059 74.541177a26.352941 26.352941 0 0 1-34.544941 39.634823l-2.710588-2.349176-74.541177-74.541176a61.500235 61.500235 0 0 1-3.614117-83.064471l3.614117-3.915294 99.388236-99.388235zM740.291765 591.209412a26.352941 26.352941 0 0 1 34.575059-2.319059l2.710588 2.349176 74.541176 74.541177c22.738824 22.738824 23.943529 58.88 3.614118 83.034353l-3.614118 3.915294-99.388235 99.388235a61.500235 61.500235 0 0 1-83.034353 3.614118l-3.915294-3.614118-74.541177-74.541176a26.352941 26.352941 0 0 1 34.575059-39.634824l2.710588 2.379294 74.511059 74.511059a8.794353 8.794353 0 0 0 10.842353 1.264941l1.596236-1.264941 99.388235-99.388235a8.794353 8.794353 0 0 0 1.234823-10.842353l-1.264941-1.566118-74.511059-74.541176a26.352941 26.352941 0 0 1 0-37.25553zM852.48 293.466353l-99.388235-99.388235a61.500235 61.500235 0 0 0-86.949647 0L194.078118 666.142118a61.500235 61.500235 0 0 0 0 86.949647l99.388235 99.388235c24.003765 24.003765 62.945882 24.003765 86.949647 0l472.064-472.064a61.500235 61.500235 0 0 0 0-86.949647zM715.836235 231.303529l99.388236 99.388236a8.794353 8.794353 0 0 1 0 12.40847L343.130353 815.224471a8.794353 8.794353 0 0 1-12.408471 0l-99.388235-99.388236a8.794353 8.794353 0 0 1 0-12.438588L703.397647 231.333647a8.794353 8.794353 0 0 1 12.438588 0z" fill="#000000" p-id="4722"></path><path d="M523.264 523.264m-35.147294 0a35.147294 35.147294 0 1 0 70.294588 0 35.147294 35.147294 0 1 0-70.294588 0Z" fill="#000000" p-id="4723"></path><path d="M452.999529 593.558588m-35.147294 0a35.147294 35.147294 0 1 0 70.294589 0 35.147294 35.147294 0 1 0-70.294589 0Z" fill="#000000" p-id="4724"></path><path d="M593.558588 452.999529m-35.147294 0a35.147294 35.147294 0 1 0 70.294588 0 35.147294 35.147294 0 1 0-70.294588 0Z" fill="#000000" p-id="4725"></path></svg>